<?xml version="1.0" encoding="utf-8"?>

<!DOCTYPE svg PUBLIC "-//W3C//DTD SVG 1.1//EN" "http://www.w3.org/Graphics/SVG/1.1/DTD/svg11.dtd">
<svg version="1.1" id="Layer_1" xmlns="http://www.w3.org/2000/svg" xmlns:xlink="http://www.w3.org/1999/xlink" x="0px" y="0px"
	 viewBox="0 0 1920 1357" enable-background="new 0 0 1920 1357" xml:space="preserve">
<g>
	<path fill="#140708" d="M483.2,224.0013c10.29-1.11,20.56-2.39,30.87-3.33c1.8,0.63,3.1,2.15,4.59,3.29
		c10.86,8.94,21.62,18.02,32.56,26.87c0.12,31.09,0.02,62.17,0.05,93.26c-3.45,0.48-6.9,1.24-10.39,1.09l-1.72-1.39
		c3.44-0.47,6.89-0.81,10.34-1.23c-0.06-30.06,0.06-60.13-0.06-90.19c-30.04,3.43-60.1,6.68-90.15,9.98
		c-0.02,30.06-0.06,60.12,0.02,90.19c5.8-0.62,11.61-1.29,17.41-1.94c0.07,0.45,0.22,1.35,0.29,1.81
		c-6.33,0.76-12.68,1.45-19.03,2.07c-11.69-9.57-23.28-19.3-34.98-28.86c-0.79-0.77-1.97-1.53-1.76-2.8
		c-0.02-30.59-0.04-61.18,0.01-91.76C441.84,228.2513,462.56,226.4513,483.2,224.0013 M500.99,223.9213
		c-25.44,2.72-50.85,5.73-76.3,8.36c11.07,9.61,22.64,18.65,33.77,28.2c29.84-3.11,59.6599-6.51,89.4699-9.84
		c-9.52-7.75-18.94-15.63-28.4-23.46c-1.85-1.45-3.49-3.29-5.66-4.23C509.56,222.5613,505.27,223.5613,500.99,223.9213
		 M423.01,233.6313c-0.01,29.78,0.01,59.56-0.01,89.34c11.35,9.69,23,19.03,34.43,28.63c0.13-28.62-0.02-57.24,0.08-85.86
		c-0.24-1.45,0.48-3.48-0.95-4.44C445.36,252.1013,434.24,242.7913,423.01,233.6313z"/>
	<path fill="#E3023E" d="M500.99,223.9213c4.28-0.36,8.57-1.36,12.8799-0.97c2.17,0.94,3.81,2.78,5.66,4.23
		c9.46,7.83,18.88,15.71,28.4,23.46c-29.81,3.33-59.6299,6.73-89.4699,9.84c-11.13-9.55-22.7-18.59-33.77-28.2
		C450.14,229.6513,475.55,226.6413,500.99,223.9213z"/>
	<path fill="#CCE08E" d="M423.01,233.6313c11.23,9.16,22.35,18.47,33.55,27.67c1.43,0.96,0.71,2.99,0.95,4.44
		c-0.1,28.62,0.05,57.24-0.08,85.86c-11.43-9.6-23.08-18.94-34.43-28.63C423.02,293.1913,423,263.4113,423.01,233.6313z"/>
	<path fill="#D3EDF8" d="M459.29,262.3513c30.05-3.3,60.11-6.55,90.15-9.98c0.12,30.06,0,60.13,0.06,90.19
		c-3.45,0.42-6.9,0.76-10.34,1.23c-20.83,2.07-41.62,4.57-62.44,6.81c-5.8,0.65-11.61,1.32-17.41,1.94
		C459.23,322.4713,459.27,292.4113,459.29,262.3513z"/>
	<path fill="#101212" d="M476.72,350.6013c20.82-2.24,41.61-4.74,62.44-6.81l1.72,1.39c-3.91,0.96-7.96,0.88-11.9,1.6
		c-17.3399,1.73-34.6299,3.9-51.9699,5.63C476.94,351.9514,476.79,351.0513,476.72,350.6013z"/>
</g>
<g>
	<path fill="#090405" d="M904.0599,189.9413c1.18-0.77,2.36-1.79,3.9-1.57c27.47,0.03,54.94-0.1,82.42,0.06
		c0.3,42.25,0.12,84.5,0.09,126.75c0.71,0.04,2.14,0.12,2.86,0.16c1.01,0.42,2.02,0.85,3.04,1.3c-18.71,2-37.39,4.21-56.1,6.13
		c10.49,9.12,21.4,17.76,32.03,26.73c2.09,2.34,5.23,1.2,7.92,0.98c27.75-3.19,55.55-6.04,83.28-9.35
		c-11.39-9.42-22.73-18.88-34.17-28.23c-4.5399,0.61-9.08,1.08-13.62,1.57c0.16-0.42,0.49-1.24,0.66-1.66l0.13-0.34
		c4.57-0.18,9.08-1.22,13.6701-1.26c12.2899,9.87,24.2899,20.14,36.5599,30.06c0.01,31.23,0.22,62.46-0.11,93.68
		c-6.12,0.32-12.21,1.12-18.27,1.93c-6.02,0.53-12.0399,1.16-18.01,2c-3.0299,0.24-6.0699,0.39-9.03,1.02
		c-2.32,0.2-4.64,0.34-6.94,0.43c1.6-0.71,3.17-1.49,4.79-2.17c15.2801-1.73,30.58-3.27,45.85-5.11c0-30.04,0-60.07,0-90.1
		c-30.08,3.35-60.1801,6.56-90.23,10.08c0.17,30-0.29,60.02,0.23,90.01c0.21,0.51,0.65,1.54,0.87,2.05
		c-1.51,0.07-2.87-0.28-3.89-1.4c-11.66-9.66-23.33-19.31-34.99-28.96c-0.03-9.43,0.12-18.86-0.09-28.28
		c-27.36,0.05-54.71,0.04-82.07,0.01c-0.2-54.28-0.05-108.56-0.07-162.84C871.16,212.3413,887.66,201.2113,904.0599,189.9413
		 M903.9999,192.5513c-14.74,10.23-29.74,20.1-44.39,30.44c28.17,0.36,56.36,0.06,84.55,0.16c13.96-11.05,28.27-21.67,42.18-32.78
		c-25.8,0.05-51.6,0.01-77.39,0.02C906.9899,190.1413,905.53,191.6213,903.9999,192.5513 M946.8699,223.6613
		c-1.14,0.61-1.44,1.78-1.35,2.98c-0.04,31.24,0.06,62.48-0.04,93.71c14.36-1.54,28.73-3.03,43.07-4.8
		c-0.13-41.3,0.02-82.6-0.08-123.89C974.5099,202.2013,960.7399,213.0113,946.8699,223.6613 M856.77,225.2213
		c-0.01,53.04,0.08,106.09-0.04,159.14c26.75,0.24,53.5-0.01,80.25,0.12c0.05-21.03,0.04-42.07,0.01-63.1
		c2.15-0.24,4.3-0.46,6.47-0.67c0.08-31.83,0.02-63.67,0.03-95.51C914.59,225.1813,885.6799,225.1513,856.77,225.2213
		 M938.79,324.2813c-0.01,29.82-0.03,59.65,0.0099,89.47c11.34,9.55,22.95,18.78,34.17,28.47c0.1-29.89,0-59.78,0.04-89.68
		C961.6199,343.1013,950.27,333.6013,938.79,324.2813z"/>
	<path fill="#FCE9F1" d="M903.9999,192.5513c1.53-0.93,2.99-2.41,4.95-2.16c25.79-0.01,51.59,0.03,77.39-0.02
		c-13.91,11.11-28.22,21.73-42.18,32.78c-28.19-0.1-56.38,0.2-84.55-0.16C874.2599,212.6513,889.2599,202.7813,903.9999,192.5513z"
		/>
	<path fill="#00A0E9" d="M946.8699,223.6613c13.87-10.65,27.64-21.46,41.6-32c0.1,41.29-0.05,82.59,0.08,123.89
		c-14.34,1.77-28.71,3.26-43.07,4.8c0.1-31.23,0-62.47,0.04-93.71C945.4299,225.4413,945.7299,224.2713,946.8699,223.6613z"/>
	<path fill="#C6DF95" d="M856.77,225.2213c28.91-0.07,57.82-0.04,86.72-0.02c-0.01,31.84,0.05,63.68-0.03,95.51
		c-2.17,0.21-4.32,0.43-6.47,0.67c0.03,21.03,0.04,42.07-0.01,63.1c-26.75-0.13-53.5,0.12-80.25-0.12
		C856.85,331.3113,856.7599,278.2614,856.77,225.2213z"/>
	<path fill="#141819" d="M992.95,315.1913c7.8-0.87,15.57-2.05,23.42-2.38c-0.17,0.42-0.5,1.24-0.66,1.66
		c-6.44,0.82-12.9,1.48-19.34,2.17c-1.02-0.45-2.03-0.88-3.04-1.3L992.95,315.1913z"/>
	<path fill="#BBE2EC" d="M1015.71,314.4713c4.54-0.49,9.0801-0.96,13.62-1.57c11.4401,9.35,22.78,18.81,34.17,28.23
		c-27.73,3.31-55.53,6.16-83.28,9.35c-2.69,0.22-5.83,1.36-7.92-0.98c-10.63-8.97-21.54-17.61-32.03-26.73
		c18.71-1.92,37.39-4.13,56.1-6.13C1002.8099,315.9514,1009.27,315.2914,1015.71,314.4713z"/>
	<path fill="#EEEA38" d="M938.79,324.2813c11.48,9.32,22.83,18.82,34.22,28.26c-0.04,29.9,0.06,59.79-0.04,89.68
		c-11.22-9.69-22.83-18.92-34.17-28.47C938.7599,383.9313,938.78,354.1013,938.79,324.2813z"/>
	<path fill="#E62789" d="M974.78,353.0313c30.05-3.52,60.1501-6.73,90.23-10.08c0,30.03,0,60.06,0,90.1
		c-15.27,1.84-30.5699,3.38-45.85,5.11c-14.73,1.56-29.44,3.24-44.15,4.88C974.4899,413.0513,974.95,383.0313,974.78,353.0313z"/>
</g>
<g>
	<path d="M131.4,388.5114c29.09-11.43,58.22-22.77,87.36-34.1c14.27,6.66,28.66,13.08,42.92,19.76c3.45,10.32,5.72,21.06,8.73,31.54
		c4.91,18.33,9.78,36.67,14.75,54.98c0.18,1.24,1,2.52,0.48,3.78c-4.36,2.05-9.01,3.45-13.43,5.3701
		c-12.02,4.65-24.01,9.35-36.01,14.04c-9.1,3.52-18.17,7.1-27.28,10.62c-3.33,1.28-6.59,2.74-9.99,3.84
		c-3.51-1.07-6.66-3.09-10.07-4.4301c-2.98-1.36-5.94-2.74-8.9-4.1c-1.38-0.63-2.75-1.25-4.12-1.86c-3.66-1.66-7.28-3.42-10.96-5.01
		c-3.08-1.44-6.14-2.9-9.28-4.18C147.37,448.7314,139.42,418.6113,131.4,388.5114 M215.73,357.5114
		c-23.01,9-46.03,17.96-69.04,26.95c-3.86,1.56-7.87,2.79-11.52,4.84c12.91,5.83,25.77,11.78,38.64,17.67
		c1.06,0.68,2.24,0.2,3.3-0.19c26.09-10.19,52.17-20.4,78.28-30.53c1.04-0.47,2-1.08,2.95-1.71c-12.43-5.57-24.79-11.32-37.16-16.99
		C219.46,356.6313,217.47,356.7713,215.73,357.5114 M176.16,409.1313c7.68,29.06,15.62,58.05,23.2,87.13
		c16.07-6.2,32.08-12.54,48.15-18.76c12.08-4.54,23.94-9.74,36.18-13.82c-0.61-5.12-2.47-9.96-3.64-14.96
		c-6.48-24.2-12.96-48.4-19.42-72.61C232.51,387.2113,204.31,398.1113,176.16,409.1313 M133.93,390.7213
		c7.22,28.01,14.95,55.9,22.31,83.87c0.54,4.24,5.61,4.42,8.61,6.29c3.68,1.64,7.32,3.36,10.98,5.05c4.36,1.94,8.67,3.99,13.02,5.96
		c2.82,1.3,5.64,2.61,8.54,3.76c-7.62-28.77-15.43-57.49-23-86.28C160.99,402.9814,147.4,396.9913,133.93,390.7213z"/>
	<path fill="#851F83" d="M215.73,357.5114c1.74-0.74,3.73-0.88,5.45,0.04c12.37,5.67,24.73,11.42,37.16,16.99
		c-0.95,0.63-1.91,1.24-2.95,1.71c-26.11,10.13-52.19,20.34-78.28,30.53c-1.06,0.39-2.24,0.87-3.3,0.19
		c-12.87-5.89-25.73-11.84-38.64-17.67c3.65-2.05,7.66-3.28,11.52-4.84C169.7,375.4713,192.72,366.5114,215.73,357.5114z"/>
	<path fill="#E8969E" d="M176.16,409.1313c28.15-11.02,56.35-21.92,84.47-33.02c6.46,24.21,12.94,48.41,19.42,72.61
		c1.17,5,3.03,9.84,3.64,14.96c-12.24,4.08-24.1,9.28-36.18,13.82c-16.07,6.22-32.08,12.56-48.15,18.76
		C191.78,467.1813,183.84,438.1913,176.16,409.1313z"/>
	<path fill="#FCE9F1" d="M133.93,390.7213c13.47,6.27,27.06,12.26,40.46,18.65c7.57,28.79,15.38,57.51,23,86.28
		c-2.9-1.15-5.72-2.46-8.54-3.76c-4.35-1.97-8.66-4.02-13.02-5.96c-3.66-1.69-7.3-3.41-10.98-5.05c-3-1.87-8.07-2.05-8.61-6.29
		C148.88,446.6213,141.15,418.7314,133.93,390.7213z"/>
</g>
<path fill="#140610" d="M975.0099,443.0414c14.71-1.64,29.42-3.32,44.15-4.88c-1.62,0.68-3.19,1.46-4.79,2.17
	c-12.7,2.1-25.76,2.62-38.49,4.76C975.66,444.5813,975.22,443.5513,975.0099,443.0414z"/>
<g>
	<path fill="#1C1209" d="M407.11,450.8413c11.84-14.49,23.56-29.08,35.45-43.53c14.4,1.38,28.95,0.39,43.38,1.52
		c36.38,0.6,72.72,2.01,109.09,2.63c3.33,0.11,6.63,0.58,9.97,0.55c-0.44,27.9-1.46,55.79-2.07,83.68
		c-0.57,1.32-1.49,2.45-2.31,3.62c-11.53,15.87-22.84,31.9-34.44,47.72c-0.81-0.07-2.42-0.22-3.23-0.29
		c-13.59-1.05-27.3-0.08-40.9-1.29c-10.67-0.21-21.3399-0.36-32.0099-0.52c-10-0.87-20.05-0.62-30.07-0.86
		c-18.72-1.35-37.55-0.29-56.26-1.83c0.45-28.47,1.48-56.94,2.1-85.4C406.08,454.8214,405.5,452.4113,407.11,450.8413
		 M443.29,409.9013c-11.44,13.93-22.8,27.93-34.11,41.97c13.27,0.27,26.56,0.23,39.81,1.01c33.76,0.54,67.4899,1.82,101.2399,2.49
		l-0.9399,2.26c-11.09-0.59-22.2-0.46-33.3-0.74c-6.6299-0.53-13.2899-0.56-19.93-0.73c-18.05-0.04-36.06-1.29-54.1-1.2
		c-11.28-0.67-22.59-0.83-33.88-0.96c-0.77,28.75-1.74,57.49-2.19,86.24c15.69,0.65,31.39,0.97,47.09,1.25
		c15.64,0.92,31.33,0.48,46.96,1.44c21.7,0.22,43.37,1.19,65.07,1.54c0.29-28.81,1.57-57.6,2.05-86.4
		c-2.64-0.53-6.58,0.74-7.75-2.45c3.25-0.17,7.76,1.79,9.91-1.59c10.75-13.36,21.66-26.58,32.38-39.95
		c-15.81-1.24-31.71-0.56-47.53-1.55C517.1299,411.8813,480.23,410.3513,443.29,409.9013 M570.77,455.5513
		c-2.57,2.71-1.46,6.79-1.76,10.17c-0.62,25.4901-1.32,50.98-2,76.46c10.91-14.99,21.65-30.1,32.54-45.1
		c0.52-0.71,0.97-1.45,1.35-2.23c0.65-26.33,1.25-52.67,2.12-78.99C592.29,429.1013,581.5499,442.3413,570.77,455.5513z"/>
	<path fill="#FFF100" d="M443.29,409.9013c36.94,0.45,73.84,1.98,110.78,2.63c15.82,0.99,31.72,0.31,47.53,1.55
		c-10.72,13.37-21.63,26.59-32.38,39.95c-2.15,3.3799-6.66,1.42-9.91,1.59c-3.03-0.2-6.06-0.23-9.08-0.25
		c-33.75-0.67-67.4799-1.95-101.2399-2.49c-13.25-0.78-26.54-0.74-39.81-1.01C420.49,437.8313,431.85,423.8313,443.29,409.9013z"/>
	<path fill="#FFFBC4" d="M570.77,455.5513c10.78-13.21,21.52-26.45,32.25-39.69c-0.87,26.32-1.47,52.66-2.12,78.99
		c-0.38,0.78-0.83,1.52-1.35,2.23c-10.89,15-21.63,30.11-32.54,45.1c0.68-25.48,1.38-50.97,2-76.46
		C569.3099,462.3414,568.2,458.2614,570.77,455.5513z"/>
	<path fill="#C36333" d="M408.08,454.0013c11.29,0.13,22.6,0.29,33.88,0.96c18.04-0.09,36.05,1.16,54.1,1.2
		c6.64,0.17,13.3,0.2,19.93,0.73c11.1,0.28,22.21,0.15,33.3,0.74c5.91,0.49,11.84,0.39,17.77,0.44c-0.48,28.8-1.76,57.59-2.05,86.4
		c-21.7-0.35-43.37-1.3199-65.07-1.54c-15.63-0.96-31.32-0.52-46.96-1.44c-15.7-0.28-31.4-0.6-47.09-1.25
		C406.34,511.4913,407.31,482.7513,408.08,454.0013z"/>
	<path fill="#2B120E" d="M550.2299,455.3713c3.02,0.02,6.05,0.05,9.08,0.25c1.17,3.19,5.11,1.92,7.75,2.45
		c-5.93-0.05-11.86,0.05-17.77-0.44L550.2299,455.3713z"/>
</g>
<g>
	<path d="M1597.58,213.7013c-0.59-1.39,0.5601-2.5,1.7401-1.29c83.9299,66.09,167.8199,132.23,251.74,198.33
		c2.87,2.43,6.09,4.46,8.74,7.14c2.48,14.37,4.6699,28.82,6.76,43.25c-7.37,1.87-15.0701,2.18-22.52,3.68
		c-15.66,2.29-31.3301,4.51-46.9501,7.03c-15.48,1.95-30.85,4.8799-46.34,6.59c-1.61-0.2-3.2-0.47-4.77-0.66
		c39.6901-5.87,79.38-11.73,119.04-17.76c-2.3201-13.64-4.27-27.34-6.48-41c-42.4501,6.48-84.9401,12.65-127.4,19.04
		c-39.73,5.8-79.4,11.99-119.15,17.6c7.46,13.03,15.4301,25.7599,23.03,38.72c2.1899-0.34,4.41-0.72,6.62-1.08
		c0.41,0.36,1.22,1.07,1.62,1.43c-2.9301,0.39-5.89,0.6201-8.71,1.51c-4.99-7.43-9.27-15.31-13.98-22.92
		c-3.65-6.33-7.75-12.4-11.1901-18.83C1605.4,374.2213,1601.53,293.9613,1597.58,213.7013 M1599.24,214.3713
		c3.62,79.77,7.8101,159.52,11.5601,239.28c35.74-4.84,71.39-10.42,107.1-15.55c46.42-6.76,92.7999-13.75,139.24-20.37
		c-26.71-21.4-53.75-42.41-80.59-63.66C1717.45,307.5114,1658.34,260.9413,1599.24,214.3713z"/>
	<path fill="#00A0DE" d="M1599.24,214.3713c59.1,46.57,118.21,93.14,177.3101,139.7c26.84,21.25,53.88,42.26,80.59,63.66
		c-46.4401,6.62-92.8199,13.61-139.24,20.37c-35.71,5.13-71.36,10.71-107.1,15.55
		C1607.05,373.8914,1602.86,294.1414,1599.24,214.3713z"/>
	<path fill="#BBE2EC" d="M1731.14,438.0513c42.46-6.39,84.95-12.56,127.4-19.04c2.21,13.66,4.1599,27.36,6.48,41
		c-39.66,6.03-79.35,11.89-119.04,17.76c-34.7999,5.06-69.5699,10.3-104.34,15.52c-2.21,0.36-4.4301,0.7401-6.62,1.08
		c-7.6-12.96-15.5701-25.69-23.03-38.72C1651.74,450.0414,1691.41,443.8513,1731.14,438.0513z"/>
	<path fill="#191C1C" d="M1641.64,493.2913c34.77-5.22,69.54-10.46,104.34-15.52c1.5701,0.19,3.16,0.46,4.77,0.66
		c-2.2,0.65-4.47,0.96-6.6899,1.4c-2.3501,0.25-4.6901,0.52-6.9801,1c-4.33,0.56-8.6499,1.19-12.9399,1.94
		c-11.36,1.6-22.72,3.26-34.04,5.08c-6.6599,0.88-13.3099,1.86-19.9299,2.96c-6.4501,0.73-12.8101,2.09-19.26,2.67l-0.59,0.43
		c-2.38,0.17-4.7401,0.41-7.0601,0.81C1642.86,494.3613,1642.05,493.6514,1641.64,493.2913z"/>
</g>
<g>
	<path fill="#0B0C0B" d="M702.97,367.1213c23.02-2.54,46.05-5.16,69.09-7.63c12.57,9.72,24.54,20.26,36.93,30.24
		c0.04,15.97,0,31.94,0.02,47.92c2.43-2.39,5.81-1.19,8.79-0.88c15.03,1.68,30.08,3.19,45.1,5.05c13.87,1.31,27.71,3,41.56,4.57
		c0.1,30.97,0.18,61.96-0.04,92.93c-10.39,9.54-21.75,18.08-32.47,27.29c-2.24,1.68-4.66,4.79-7.72,2.83
		c-2.48-0.92-4.95-1.85-7.5099-2.46c3.2599,0.32,6.52,0.65,9.7599,1.15c0.02-30.03-0.03-60.05,0.03-90.08
		c-10.46-1.45-20.99-2.35-31.47-3.63c-8.69-0.77-17.3101-2.2-26.02-2.59c-0.02,3.74-0.01,7.48-0.01,11.23
		c-10.83,1.58-21.79,2.22-32.6,3.86c-0.37,23.69,0.04,47.41-0.2,71.11c17.71,2.0699,35.46,3.86,53.16,6
		c0.93,0.67,1.85,1.4,2.76,2.1299c-18.86-2.11-37.73-4.2599-56.61-6.21c-0.24-0.23-0.74-0.68-0.99-0.91c-0.09-24-0.05-48-0.02-72
		c-4.86,0.21-9.64,1.27-14.51,1.36c0.14,0.35,0.41,1.06,0.55,1.42c2.4901,1.94,4.88,4.04,7.41,5.95
		c0.05,31.12,0.13,62.24-0.03,93.35c-0.58-0.56-1.15-1.11-1.71-1.65c-0.02-30.05,0.03-60.09-0.02-90.14
		c-30.03,3.58-60.12,6.7-90.18,10.08c-0.02,30.01-0.01,60.02-0.01,90.03c2.25-0.17,4.51-0.34,6.78-0.51
		c0.5099,0,1.54-0.01,2.05-0.01c-0.47,0.39-1.42,1.16-1.9,1.55l-0.61,0.4901c-2.58,0.12-5.14,0.3-7.7,0.47
		c-9.72-8.06-19.46-16.1-29.17-24.16c-2.46-2.15-5.26-3.93-7.38-6.43c-0.11-30.71-0.13-61.44,0.01-92.15
		c0.23-0.26,0.7-0.79,0.93-1.06c16.23-1.69,32.48-3.4,48.67-5.43c-2.81-2.48-5.87-4.68-8.54-7.31c0.28-30.95-0.18-61.92,0.23-92.86
		c4.61-1.33,9.67-1.12,14.44-1.98l1.69-0.06c0.04,0.67,0.09,1.36,0.11,2.05c-4.42,0.11-8.81,0.7-13.18,1.24
		c11.2,9.45,22.65,18.6,33.8,28.12c29.88-2.96,59.67-6.78,89.56-9.65c-11.23-9.64-22.81-18.86-34.12-28.4
		c-23.25,2.65-46.53,5.09-69.77,7.77c-1.51,0.4-2.89-0.45-4.11-1.16C698.7499,366.3013,701.35,367.6213,702.97,367.1213
		 M681.0099,372.7014c0,29.76,0.01,59.53,0,89.3c11.22,9.71,22.9,18.87,34.18,28.53c-0.07-29.9,0.29-59.84-0.18-89.72
		C703.72,391.4013,692.39,382.0114,681.0099,372.7014 M717.14,401.2713c-0.3,30.03-0.05,60.06-0.13,90.09
		c29.65-3.23,59.31-6.44,88.93-9.88c2-0.03,0.98-2.55,1.29-3.76c-0.12-28.8,0.03-57.6-0.08-86.4
		C777.16,394.7614,747.16,398.1313,717.14,401.2713 M809.0099,440.5913c0.04,9.75-0.1,19.5,0.09,29.24
		c19.37,1.73,38.69,4.09,58,6.33c11.18-9.66,22.96-18.6299,33.96-28.49c-29.79-2.91-59.52-6.51-89.28-9.71
		C810.84,438.8313,809.9299,439.7113,809.0099,440.5913 M870.3099,475.9014c-0.82,0.81-2.25,1.49-2.02,2.87
		c-0.05,29.5,0.0099,59-0.03,88.49c11.37-9.68,22.98-19.07,34.46-28.61c0.07-29.85,0.0099-59.71,0.03-89.56
		C891.9199,458.0114,881.14,466.9913,870.3099,475.9014 M641.4799,477.3113c11.03,9.6,22.6201,18.57,33.67,28.17
		c29.71-3,59.36-6.64,89.07-9.68c-2.18-2.57-4.89-4.6-7.44-6.77c-13.67,1.31-27.3,3.06-40.97,4.3799
		c-8.63-7.11-17.29-14.18-25.81-21.42C673.8099,473.6913,657.66,475.5914,641.4799,477.3113 M639.84,478.7513
		c-0.03,29.68-0.17,59.38,0.07,89.05c2.15,2.58,5,4.44,7.53,6.63c8.9,7.41,17.87,14.73,26.74,22.18
		c0.12-28.96-0.01-57.92,0.07-86.88c0.02-1.41-0.05-2.99-1.39-3.79C661.84,496.8914,650.9799,487.6514,639.84,478.7513z"/>
	<path fill="#BBE2EC" d="M701.91,369.1213c23.24-2.68,46.52-5.12,69.77-7.77c11.31,9.54,22.89,18.76,34.12,28.4
		c-29.89,2.87-59.68,6.69-89.56,9.65c-11.15-9.52-22.6-18.67-33.8-28.12c4.37-0.54,8.76-1.13,13.18-1.24
		c-0.02-0.69-0.07-1.38-0.11-2.05l-1.69,0.06c1.32-0.35,2.65-0.38,3.98-0.09C699.02,368.6714,700.4,369.5213,701.91,369.1213z"/>
	<path fill="#EEEA38" d="M681.0099,372.7014c11.38,9.31,22.71,18.7,34,28.11c0.47,29.88,0.11,59.82,0.18,89.72
		c-11.28-9.66-22.96-18.82-34.18-28.53C681.02,432.2314,681.0099,402.4613,681.0099,372.7014z"/>
	<path fill="#2E4EA0" d="M717.14,401.2713c30.02-3.14,60.02-6.51,90.01-9.95c0.11,28.8-0.04,57.6,0.08,86.4
		c-0.31,1.21,0.71,3.73-1.29,3.76c-29.62,3.44-59.28,6.65-88.93,9.88C717.09,461.3314,716.84,431.3013,717.14,401.2713z"/>
	<path fill="#EE93AE" d="M809.0099,440.5913c0.92-0.88,1.83-1.76,2.77-2.63c29.76,3.2,59.49,6.8,89.28,9.71
		c-11,9.86-22.78,18.83-33.96,28.49c-19.31-2.24-38.63-4.6-58-6.33C808.91,460.0914,809.0499,450.3413,809.0099,440.5913z"/>
	<path fill="#FBD6B6" d="M870.3099,475.9014c10.83-8.91,21.61-17.89,32.44-26.81c-0.02,29.85,0.04,59.71-0.03,89.56
		c-11.48,9.54-23.09,18.93-34.46,28.61c0.04-29.49-0.02-58.99,0.03-88.49C868.0599,477.3914,869.4899,476.7114,870.3099,475.9014z"
		/>
	<path fill="#F4F29B" d="M809.02,471.8314c8.71,0.39,17.33,1.82,26.02,2.59c10.48,1.28,21.0099,2.18,31.47,3.63
		c-0.06,30.03-0.01,60.05-0.03,90.08c-3.24-0.5-6.5-0.83-9.7599-1.15c-9.1-1.1-18.22-2.12-27.35-2.95
		c-17.7-2.14-35.45-3.9301-53.16-6c0.24-23.7-0.17-47.42,0.2-71.11c10.81-1.64,21.77-2.28,32.6-3.86
		C809.0099,479.3113,808.9999,475.5714,809.02,471.8314z"/>
	<path fill="#A6D9E2" d="M641.4799,477.3113c16.1801-1.72,32.33-3.62,48.52-5.32c8.52,7.24,17.18,14.31,25.81,21.42
		c13.67-1.3199,27.3-3.0699,40.97-4.3799c2.55,2.17,5.26,4.2,7.44,6.77c-29.71,3.04-59.36,6.68-89.07,9.68
		C664.1,495.8813,652.5099,486.9113,641.4799,477.3113z"/>
	<path fill="#E60012" d="M639.84,478.7513c11.14,8.9,22,18.14,33.02,27.19c1.34,0.8,1.41,2.38,1.39,3.79
		c-0.08,28.96,0.05,57.92-0.07,86.88c-8.87-7.45-17.84-14.77-26.74-22.18c-2.53-2.19-5.38-4.05-7.53-6.63
		C639.6699,538.1313,639.8099,508.4313,639.84,478.7513z"/>
	<path fill="#F8C8C9" d="M676.02,507.4113c30.06-3.3799,60.15-6.5,90.18-10.08c0.05,30.05,0,60.09,0.02,90.14
		c-27.79,3.34-55.66,6.01-83.43,9.46c-2.27,0.17-4.53,0.34-6.78,0.51C676.0099,567.4313,675.9999,537.4213,676.02,507.4113z"/>
	<path fill="#141410" d="M829.3699,564.0314c9.13,0.83,18.25,1.85,27.35,2.95c2.56,0.61,5.03,1.54,7.5099,2.46
		c-10.74-0.56-21.39-2.25-32.1-3.28C831.22,565.4313,830.2999,564.7014,829.3699,564.0314z"/>
	<path fill="#0F0F0F" d="M682.79,596.9313c27.77-3.45,55.64-6.12,83.43-9.46c0.56,0.54,1.13,1.09,1.71,1.65l0.08,0.08
		c-7.36,0.87-14.7,1.92-22.1,2.29l-0.67,0.49c-14.81,1.04-29.5,3.49-44.31,4.52l-0.67,0.48c-5.81,0.07-11.51,1.41-17.32,1.49
		c0.48-0.39,1.43-1.16,1.9-1.55C684.33,596.9213,683.2999,596.9313,682.79,596.9313z"/>
</g>
<g>
	<path d="M1331.28,164.3013c20.5599-5.17,40.8199-11.55,61.39-16.67c63.48,81.34,127.13,162.55,190.62,243.88
		c-0.0601,107.82-0.03,215.63-0.02,323.45c-14.3101,11.39-28.97,22.34-43.35,33.65c-1.17,0.82-2.28,2.01-3.8401,1.74
		c-42.8099-0.04-85.63,0.1-128.45-0.0699c-0.03-20.51-7.92-41.15-22.64-55.59c-7.2999-7.71-16.35-13.71-26.16-17.71
		c-6.61-2.85-13.6799-4.3-20.74-5.44c-8.0499-0.68-16.1599-0.42-24.09,1.12c-1.37,0.36-2.78,0.63-4.12,0.96
		c-3.04,0.88-6.05,1.84-9.01,2.93c-18.41,7.32-33.87,21.82-42.23,39.79c-5.04,10.55-7.33,22.25-7.47,33.9
		c-46.5901,0.24-93.1901,0.09-139.78,0.07c-0.3101-106.85-0.01-213.71-0.15-320.57c0.11-1.62-0.39-3.55,0.91-4.82
		C1185.23,338.0813,1258.24,251.1713,1331.28,164.3013 M1334.73,165.6613c67.37,86.52,135.14,172.73,202.51,259.25
		c14.66-10.85,28.91-22.27,43.4401-33.29c-62.9301-80.65-126-161.18-188.99-241.78
		C1372.71,155.1213,1353.71,160.3613,1334.73,165.6613 M1114.75,425.2513c140.0701,0.04,280.14,0.09,420.21-0.02
		c-67.76-86.09-135.33-172.33-203.0699-258.44C1259.59,253.0113,1187,338.9913,1114.75,425.2513 M1538.4,427.1113
		c-0.29,52.87-0.13,105.76-0.08,158.64c14.2699-11.04,28.49-22.14,42.87-33.03c0.1499-52.97,0.0499-105.95,0.0499-158.92
		C1567.02,404.9814,1552.41,415.7014,1538.4,427.1113 M1113.25,587.0214c28.91,0.11,57.8201,0.01,86.72,0.05
		c0.0701-53.26,0.05-106.52,0.02-159.77c-28.88-0.04-57.75,0.09-86.63-0.07C1113.11,480.4913,1113.33,533.7614,1113.25,587.0214
		 M1202.04,427.2914c-0.0601,52.8-0.02,105.6-0.03,158.4c14.37-10.93,28.52-22.15,42.95-33c0.1001-41.8,0.05-83.6,0.02-125.4
		C1230.67,427.3013,1216.35,427.3013,1202.04,427.2914 M1247.04,427.2813c-0.0701,41.64-0.01,83.28-0.03,124.92
		c66.84-0.01,133.6899,0,200.53-0.01c-0.0801-41.63,0-83.27-0.04-124.91C1380.6801,427.2914,1313.86,427.3013,1247.04,427.2813
		 M1449.59,587.1013c28.88-0.06,57.77,0,86.66-0.03c0.02-53.26,0.01-106.52,0-159.77c-28.9,0-57.8,0.01-86.7-0.01
		C1449.51,480.5613,1449.4301,533.8314,1449.59,587.1013 M1221.55,573.3113c-5.7001,4.58-11.8201,8.67-17.1901,13.66
		c81.04,0.21,162.0801,0.04,243.12,0.09c0.0701-10.95-0.01-21.9,0.05-32.85c-58.8301-0.03-117.66,0-176.49-0.01
		c-8.3,0.2-16.65-0.4-24.92,0.27C1237.79,560.5413,1229.78,567.0814,1221.55,573.3113 M1539.59,587.3513
		c-1.2999,0.67-1.51,2.09-1.36,3.41c0.1,52.07-0.0599,104.15,0.0801,156.22c14.45-10.85,28.7-21.98,42.96-33.08
		c-0.02-52.86,0.01-105.71-0.02-158.57C1567.25,565.8613,1553.52,576.7513,1539.59,587.3513 M1113.24,589.0914
		c0.04,53.09,0.02,106.18,0.01,159.2599c45.16-0.0699,90.33,0.14,135.49-0.1c1.22-3.21,0.6-7.08,1.36-10.53
		c3.65-27.46,22.88-52.02,48.48-62.47c18.14-7.57,39.1001-8.16,57.6101-1.51c15.74,5.45,29.5199,16.15,39.0399,29.79
		c9.15,13.06,14.0601,28.9,14.3401,44.8199c42.25-0.0699,84.5099,0.16,126.7599-0.12c-0.23-53.06,0.14-106.14-0.1899-159.2
		C1395.17,589.1613,1254.2,589.0413,1113.24,589.0914z"/>
	<path fill="#FFE800" d="M1334.73,165.6613c18.98-5.3,37.98-10.54,56.9601-15.82c62.99,80.6,126.0599,161.13,188.99,241.78
		c-14.53,11.02-28.78,22.44-43.4401,33.29C1469.87,338.3914,1402.1,252.1813,1334.73,165.6613z"/>
	<path fill="#E83862" d="M1114.75,425.2513c72.25-86.26,144.84-172.24,217.14-258.46c67.74,86.11,135.3099,172.35,203.0699,258.44
		C1394.89,425.3413,1254.8201,425.2914,1114.75,425.2513z"/>
	<path fill="#F8C898" d="M1538.4,427.1113c14.01-11.41,28.62-22.13,42.84-33.31c0,52.97,0.1,105.95-0.0499,158.92
		c-14.38,10.89-28.6001,21.9901-42.87,33.03C1538.27,532.8713,1538.11,479.9813,1538.4,427.1113z"/>
	<path fill="#AA529B" d="M1113.25,587.0214c0.08-53.26-0.14-106.53,0.11-159.79c28.88,0.16,57.75,0.03,86.63,0.07
		c0.03,53.25,0.05,106.51-0.02,159.77C1171.0701,587.0314,1142.16,587.1313,1113.25,587.0214z"/>
	<path fill="#D29CC5" d="M1202.04,427.2914c14.3099,0.01,28.63,0.01,42.9399,0c0.03,41.8,0.0801,83.6-0.02,125.4
		c-14.4299,10.85-28.58,22.07-42.95,33C1202.02,532.8914,1201.98,480.0914,1202.04,427.2914z"/>
	<path fill="#EC6517" d="M1449.59,587.1013c-0.1599-53.27-0.08-106.54-0.0399-159.81c28.8999,0.02,57.7999,0.01,86.7,0.01
		c0.01,53.25,0.02,106.51,0,159.77C1507.36,587.1013,1478.47,587.0413,1449.59,587.1013z"/>
	<path fill="#3CB034" d="M1221.55,573.3113c8.23-6.23,16.24-12.77,24.5699-18.84c8.27-0.67,16.62-0.0699,24.92-0.27
		c58.83,0.01,117.6599-0.02,176.49,0.01c-0.0601,10.95,0.02,21.9-0.05,32.85c-81.0399-0.05-162.08,0.12-243.12-0.09
		C1209.73,581.9813,1215.85,577.8914,1221.55,573.3113z"/>
	<path fill="#CCE08E" d="M1539.59,587.3513c13.9301-10.6,27.66-21.49,41.66-32.02c0.03,52.86,0,105.71,0.02,158.57
		c-14.26,11.1-28.51,22.23-42.96,33.08c-0.14-52.07,0.0199-104.15-0.0801-156.22
		C1538.08,589.4413,1538.29,588.0214,1539.59,587.3513z"/>
	<path fill="#2862AE" d="M1113.24,589.0914c140.96-0.05,281.9301,0.0699,422.9-0.06c0.33,53.06-0.04,106.14,0.1899,159.2
		c-42.25,0.28-84.5099,0.05-126.7599,0.12c-0.28-15.92-5.1901-31.7599-14.3401-44.8199c-9.52-13.64-23.2999-24.34-39.0399-29.79
		c-18.51-6.65-39.4701-6.06-57.6101,1.51c-25.6,10.45-44.83,35.01-48.48,62.47c-0.76,3.45-0.14,7.32-1.36,10.53
		c-45.16,0.24-90.33,0.03-135.49,0.1C1113.26,695.2714,1113.28,642.1813,1113.24,589.0914z"/>
</g>
<g>
	<path fill="#0E0D0D" d="M504.71,578.4213c1.64-1.87,4.19-0.8,6.29-0.62c26.78,2.93,53.55,5.98,80.35,8.83
		c2.54,0.51,5.14,0.64,7.73,0.76l-0.09,0.03c-0.63,0.22-1.89,0.67-2.52,0.89c0.04,0.75,0.11,2.26,0.14,3.02
		c-11.33,9.06-22.38,18.48-33.6,27.68l-0.29-1.81c2.2-2.71,5.14-4.66,7.78-6.91c8.45-7.04,16.97-14,25.4-21.07
		c-29.65-3.67-59.42-6.46-89.08-10.0699c-10.74,8.98-21.44,18.03-32.41,26.72c-0.31,0.11-0.92,0.35-1.22,0.47l-0.3-1.45
		C483.38,595.9514,494.18,587.3414,504.71,578.4213z"/>
	<path fill="#EE93AE" d="M474.41,605.8713c10.97-8.69,21.67-17.74,32.41-26.72c29.6599,3.61,59.43,6.4,89.08,10.0699
		c-8.43,7.07-16.95,14.03-25.4,21.07c-2.64,2.25-5.58,4.2-7.78,6.91c-29.26-2.59-58.41-6.53-87.66-9.36
		C474.83,607.1713,474.62,606.5214,474.41,605.8713z"/>
	<path d="M596.47,588.3113c0.63-0.22,1.89-0.67,2.52-0.89c0.63,31.13,0.09,62.31,0.27,93.45c-11.95,10.25-24.34,19.98-36.25,30.27
		c-1.72-0.79-3.43-1.57-5.2-2.18c0.92,0.12,2.77,0.38,3.7,0.5099c0.04-30.06-0.06-60.1299,0.05-90.1899
		c-28.6-3.39-57.24-6.41-85.8499-9.58l-0.65-1.86c29.25,2.83,58.4,6.77,87.66,9.36l0.29,1.81c0.58,29.78,0.09,59.6,0.24,89.39
		c11.4-9.4901,22.85-18.91,34.26-28.39c0-29.79,0.01-59.57-0.01-89.36c-0.22,0.17-0.67,0.5099-0.89,0.68
		C596.58,590.5714,596.5099,589.0613,596.47,588.3113z"/>
	<path fill="#F2E9B5" d="M596.6099,591.3314c0.22-0.17,0.67-0.51,0.89-0.68c0.02,29.79,0.01,59.5699,0.01,89.36
		c-11.41,9.48-22.86,18.9-34.26,28.39c-0.15-29.79,0.34-59.61-0.24-89.39C574.2299,609.8113,585.28,600.3914,596.6099,591.3314z"/>
	<path fill="#0C0C0C" d="M469.48,607.6414c1.13-0.92,2.27-1.84,3.41-2.75l0.3,1.45c0.69,1.0699,1.41,2.1299,2.15,3.2
		c-1.02-0.07-3.06-0.22-4.08-0.29c0.03,30,0.03,59.99,0,89.99c28.83,3.4,57.7199,6.31,86.55,9.72c1.77,0.61,3.48,1.39,5.2,2.18
		c-12.73-0.86-25.39-2.73-38.1-3.97c-18.46-2.1-36.93-4.08-55.39-6.13C469.43,669.9113,469.52,638.7814,469.48,607.6414z"/>
	<path fill="#AF3E92" d="M473.19,606.3414c0.3-0.1201,0.91-0.36,1.22-0.47c0.21,0.65,0.42,1.3,0.65,1.97l0.65,1.86
		c28.61,3.17,57.25,6.19,85.8499,9.58c-0.11,30.06-0.01,60.1299-0.05,90.1899c-0.93-0.1299-2.78-0.39-3.7-0.5099
		c-28.83-3.41-57.72-6.32-86.55-9.72c0.03-30,0.03-59.99,0-89.99c1.02,0.07,3.06,0.22,4.08,0.29
		C474.6,608.4713,473.88,607.4113,473.19,606.3414z"/>
</g>
<g>
	<path fill="#0E0C03" d="M1654.99,614.7014c12.17-10.27,24.5701-20.28,36.76-30.53c4.46,0.57,8.9301,1.11,13.4301,1.48
		c2.96,0.6,5.99,0.64,9,1c23.5,2.71,47.0499,5.2599,70.58,7.79c0.58,31.1,0.08,62.24,0.25,93.35
		c-12.15,10.2-24.54,20.12-36.59,30.44c-28.8101-3.12-57.62-6.23-86.4-9.59c-2.29-0.26-4.5601-0.42-6.8201-0.57
		C1654.74,676.9614,1655.17,645.8214,1654.99,614.7014 M1687.5,590.2014c-9.5599,8.07-19.39,15.82-28.83,24.03
		c29.49,3.76,59.13,6.37,88.62,10.13c11.48-9.24,22.8099-18.69,34.1-28.18c-29.47-3.64-59.0601-6.56-88.5601-9.95
		C1690.79,587.1613,1689.21,588.8013,1687.5,590.2014 M1748.85,625.7213c-0.0599,29.78-0.09,59.5601,0.02,89.33
		c11.59-9.21,22.87-18.82,34.3-28.24c0.0599-29.78,0.0599-59.55,0-89.33C1771.59,606.7213,1760.3201,616.3513,1748.85,625.7213
		 M1656.8,616.1213c0,30.01,0.01,60.03-0.01,90.05c30.0399,3.66,60.1799,6.54,90.22,10.18c0-30.04,0-60.08,0-90.12
		C1716.97,622.6414,1686.86,619.5914,1656.8,616.1213z"/>
	<path fill="#F39800" d="M1687.5,590.2014c1.71-1.4,3.29-3.04,5.33-3.97c29.5,3.39,59.0901,6.31,88.5601,9.95
		c-11.29,9.49-22.62,18.94-34.1,28.18c-29.49-3.76-59.13-6.37-88.62-10.13C1668.11,606.0214,1677.9401,598.2714,1687.5,590.2014z"/>
	<path fill="#EA5404" d="M1748.85,625.7213c11.4701-9.37,22.74-19,34.3201-28.24c0.0599,29.78,0.0599,59.55,0,89.33
		c-11.4301,9.42-22.7101,19.03-34.3,28.24C1748.76,685.2814,1748.79,655.5013,1748.85,625.7213z"/>
	<path fill="#EEEA38" d="M1656.8,616.1213c30.0599,3.47,60.1699,6.52,90.21,10.11c0,30.04,0,60.08,0,90.12
		c-30.04-3.64-60.1801-6.52-90.22-10.18C1656.8101,676.1514,1656.8,646.1313,1656.8,616.1213z"/>
</g>
<g>
	<path fill="#0D0800" d="M895.28,554.9213c1.1-0.74,2.57-1.34,3.79-0.43c43.65,24.75,87.32,49.5,130.9901,74.22
		c-3.66,20.34-7.4701,40.66-11.2701,60.98c-13.86,13.17-27.39,26.68-40.97,40.14c-4.13-1.03-7.44-3.86-11.15-5.79
		c-31.2-18.31-62.54-36.4-93.65-54.85c-0.13,23.63,0.22,47.28-0.18,70.91c-31.08,3.16-62.1,6.86-93.16,10.17
		c-10.58-9.16-21.53-17.9-32.26-26.87c-1.67-1.63-4.7599-2.79-4.2-5.62c0.09-30.44-0.08-60.88,0.09-91.3101
		c23.52-2.5,47.04-5.0699,70.53-7.81c6.03-0.53,12.04-1.19,18.04-1.96c1.47-0.19,2.95-0.36,4.44-0.5c2.56,2.23,5.26,4.31,7.87,6.51
		c0.44-12.72,0.73-25.46,1.31-38.17C862.0599,574.6213,878.72,564.8513,895.28,554.9213 M896.8699,556.4713
		c-16.02,9.48-31.95,19.14-48.08,28.4301c5.6899,3.9,12.1299,6.53,18.16,9.85c39.96,20.67,79.79,41.6,119.84,62.09
		c13.43-9,26.58-18.42,40.1299-27.25c-5.97-3.78-12.24-7.06-18.36-10.59c-36.31-20.61-72.68-41.12-108.95-61.79
		C898.7299,556.9014,897.79,555.7913,896.8699,556.4713 M847.3199,586.9614c-0.51,21.2599-1.42,42.52-1.98,63.78
		c36.82,21.28,73.44,42.9,110.19,64.3c6.97,3.87,13.6,8.37,20.79,11.84c3.04-22.72,6.31-45.41,9.27-68.14
		C939.47,634.8613,893.39,610.9113,847.3199,586.9614 M746.6899,628.2213c11.25,9.45,22.62,18.7401,33.92,28.13
		c20.85-2.54,41.76-4.55,62.6-7.1c0.34-8.11,0.82-16.23,0.71-24.34c-2.8199-2.2-5.52-4.55-8.3-6.78
		C805.9999,621.7114,776.28,624.5114,746.6899,628.2213 M745.09,629.2913c-0.19,29.88-0.03,59.76-0.08,89.64
		c11.39,9.42,22.73,18.9,34.19,28.25c0.08-29.81,0.02-59.62,0.03-89.43C767.9299,648.1613,756.3199,638.9614,745.09,629.2913
		 M998.08,651.7413c-3.35,2.6-7.44,4.4-10.32,7.49c-3.22,22.18-6.18,44.41-9.17,66.62c12.85-12.25,25.27-24.96,38.11-37.22
		c3.98-18.92,7.15-38.04,10.75-57.05C1017.71,638.3813,1007.8599,645.0013,998.08,651.7413 M781.0599,658.1913
		c-0.12,30.06-0.02,60.13-0.05,90.19c28.97-3.4,57.98-6.45,86.97-9.69c1.1-0.38,3.6201,0.06,3.22-1.89
		c0.04-22.36,0.02-44.72,0-67.08c0.3-1.55-1.44-2.12-2.37-2.87c-8.88-5.18-17.81-10.29-26.59-15.62
		C821.89,653.8713,801.4399,655.8013,781.0599,658.1913z"/>
	<path fill="#E2DFEF" d="M896.8699,556.4713c0.92-0.68,1.86,0.4301,2.74,0.7401c36.27,20.67,72.64,41.18,108.95,61.79
		c6.12,3.53,12.39,6.81,18.36,10.59c-13.55,8.83-26.7,18.25-40.1299,27.25c-40.05-20.4901-79.88-41.42-119.84-62.09
		c-6.03-3.32-12.47-5.95-18.16-9.85C864.9199,575.6113,880.85,565.9514,896.8699,556.4713z"/>
	<path fill="#AF62A4" d="M847.3199,586.9614c46.07,23.95,92.15,47.9,138.27,71.78c-2.96,22.73-6.23,45.42-9.27,68.14
		c-7.19-3.47-13.82-7.97-20.79-11.84c-36.75-21.4-73.37-43.02-110.19-64.3C845.9,629.4813,846.8099,608.2213,847.3199,586.9614z"/>
	<path fill="#F39800" d="M746.6899,628.2213c29.59-3.71,59.31-6.5099,88.93-10.09c2.78,2.23,5.48,4.58,8.3,6.78
		c0.11,8.11-0.37,16.23-0.71,24.34c-20.84,2.55-41.75,4.56-62.6,7.1C769.3099,646.9614,757.9399,637.6713,746.6899,628.2213z"/>
	<path fill="#E8F0C4" d="M745.09,629.2913c11.23,9.67,22.84,18.87,34.14,28.46c-0.0099,29.81,0.05,59.62-0.03,89.43
		c-11.46-9.35-22.8-18.83-34.19-28.25C745.0599,689.0513,744.9,659.1713,745.09,629.2913z"/>
	<path fill="#D3EDF8" d="M998.08,651.7413c9.78-6.74,19.63-13.36,29.37-20.16c-3.6,19.01-6.77,38.13-10.75,57.05
		c-12.84,12.26-25.26,24.97-38.11,37.22c2.99-22.21,5.95-44.44,9.17-66.62C990.64,656.1414,994.7299,654.3414,998.08,651.7413z"/>
	<path fill="#49B232" d="M781.0599,658.1913c20.38-2.39,40.83-4.32,61.18-6.96c8.78,5.33,17.71,10.44,26.59,15.62
		c0.93,0.75,2.67,1.32,2.37,2.87c0.02,22.36,0.04,44.72,0,67.08c0.4,1.95-2.12,1.51-3.22,1.89c-28.99,3.24-58,6.29-86.97,9.69
		C781.04,718.3214,780.9399,688.2513,781.0599,658.1913z"/>
</g>
<g>
	<path fill="#00080C" d="M290.91,633.5914c7.46-0.66,14.89-1.58,22.33-2.44c12.23,10.18,24.54,20.27,36.78,30.46
		c0.1,30.75-0.24,61.52,0.17,92.27c-0.49-0.13-1.49-0.37-1.98-0.5c0.07-30.1,0.01-60.21,0.03-90.32
		c-30.07,3.42-60.18,6.55-90.23,10.09c0.08,30.05-0.17,60.1,0.13,90.15c0.07,0.27,0.21,0.81,0.28,1.08
		c0.65,0.07,1.96,0.19,2.61,0.25c-1.43,0.27-2.87,0.47-4.3,0.69c-12.08-10.37-24.48-20.36-36.72-30.54
		c0.07-31.11-0.13-62.22,0.09-93.32c1.98-0.19,3.97-0.34,5.95-0.55c8.96-1.17,17.97-2.0699,26.97-2.97c2.96-0.63,5.99-0.72,9-0.99
		C271.61,635.5814,281.31,634.9614,290.91,633.5914 M223.7,642.8513c2.33,2.78,5.36,4.81,8.1,7.15c8.62,7.1,17.16,14.31,25.85,21.33
		c29.6-3.67,59.31-6.52,88.92-10.1c-11.2-9.41-22.63-18.53-33.72-28.06C283.12,636.2313,253.45,639.9014,223.7,642.8513
		 M221.8,644.2814c-0.05,29.83-0.04,59.67-0.01,89.5099c11.49,9.39,22.74,19.08,34.39,28.27c0.15-29.78,0.05-59.55,0.05-89.32
		C244.78,663.2213,233.35,653.6713,221.8,644.2814z"/>
	<path fill="#00A0DE" d="M223.7,642.8513c29.75-2.95,59.42-6.62,89.15-9.68c11.09,9.53,22.52,18.65,33.72,28.06
		c-29.61,3.58-59.32,6.43-88.92,10.1c-8.69-7.02-17.23-14.23-25.85-21.33C229.06,647.6613,226.03,645.6313,223.7,642.8513z"/>
	<path fill="#EC6517" d="M221.8,644.2814c11.55,9.39,22.98,18.9399,34.43,28.46c0,29.77,0.1,59.54-0.05,89.32
		c-11.65-9.19-22.9-18.88-34.39-28.27C221.76,703.9514,221.75,674.1113,221.8,644.2814z"/>
	<path fill="#FCE2CA" d="M258.01,673.1514c30.05-3.54,60.16-6.67,90.23-10.09c-0.02,30.11,0.04,60.22-0.03,90.32
		c-30.04,3.02-60.07,6.48-90.07,9.92C257.84,733.2513,258.09,703.2014,258.01,673.1514z"/>
	<path fill="#12110F" d="M258.14,763.3013c30-3.44,60.03-6.9,90.07-9.92c0.49,0.13,1.49,0.37,1.98,0.5
		c-0.68,1.1-1.91,1.33-3.11,1.38c-28.69,3.05-57.34,6.56-86.05,9.37c-0.65-0.06-1.96-0.18-2.61-0.25
		C258.35,764.1113,258.21,763.5714,258.14,763.3013z"/>
</g>
<g>
	<path fill="#0E101B" d="M906.1699,790.3613c9.32-0.19,18.57,1.19,27.9,1.09c45.08,2.46,90.1901,4.47,135.29,6.82
		c10.2101,0.87,17.72,9.31,22.3301,17.79c8.97,16.98,10.6699,36.83,9.1399,55.7c-1.2899,12.92-4.46,25.81-10.5099,37.36
		c-4.4301,8.07-10.4401,15.98-19.14,19.68c-6.38,2.81-13.4501,1.23-20.13,1.12c-50.3601-2.49-100.7201-4.99-151.0701-7.43
		c0.44-3.68-3.48-4.91-5.45-7.24c-7.3-7.53-11.4-17.55-13.98-27.57c-4.92-20.48-4.03-42.34,2.32-62.42
		c4.22-12.67,11.11-25.39,22.97-32.35C905.9199,792.2714,906.09,791.0013,906.1699,790.3613 M900.4299,799.0914
		c-8.51,7.8-13.45,18.67-16.8,29.53c-5.8,20.12-6.34,41.92-0.48,62.1c2.38,7.8,5.74,15.53,11.2,21.7c2.36,2.83,5.99,4.56,7.45,8.12
		c9.37,1.5,18.92,0.42,28.29,1.88c10.32,0.25,20.62,1.05,30.94,1.16c5.33,0.25,10.63,1,15.99,0.91c6.71-0.13,13.36,1.11,20.08,1
		c6.99-0.13,13.91,1.15,20.91,1c6.35-0.09,12.6401,1.05,19.0001,0.98c5.0601-0.09,10.08,0.55,15.13,0.7401
		c-6.85-5.55-12.64-12.46-15.86-20.7401c-9.11-22.31-9.21-47.65-3.01-70.73c4.1899-14.62,11.63-29.69,25.52-37.25
		c-49.9501-2.49-99.9201-5.1-149.8701-7.29C906.34,794.8013,903.3099,796.8414,900.4299,799.0914 M1054.62,804.4213
		c-5.0599,3.97-9.23,9.02-12.3199,14.65c-6.55,11.82-9.87,25.18-11.14,38.56c-1.38,18.76,0.4199,38.53,9.78,55.22
		c4.61,8.13,12.2,15.79,22.1,16.19c10.12-0.64,18.02-8.11,23.15-16.29c7.75-12.31,11.62-26.74,13.0299-41.12
		c1.67-18.61-0.2-38.21-9.11-54.91c-3.9-7.12-9.6899-14.0099-17.78-16.28C1066.22,798.5914,1059.58,800.6813,1054.62,804.4213z"/>
	<path fill="#2B328E" d="M900.4299,799.0914c2.88-2.25,5.91-4.29,8.49-6.89c49.95,2.19,99.92,4.8,149.8701,7.29
		c-13.89,7.56-21.3301,22.63-25.52,37.25c-6.2,23.08-6.1,48.42,3.01,70.73c3.22,8.28,9.01,15.19,15.86,20.7401
		c-5.05-0.19-10.0699-0.83-15.13-0.7401c-6.36,0.07-12.65-1.0699-19.0001-0.98c-7,0.15-13.92-1.13-20.91-1
		c-6.72,0.11-13.3701-1.13-20.08-1c-5.36,0.09-10.66-0.66-15.99-0.91c-10.32-0.11-20.62-0.91-30.94-1.16
		c-9.37-1.46-18.92-0.38-28.29-1.88c-1.46-3.56-5.09-5.29-7.45-8.12c-5.46-6.17-8.82-13.9-11.2-21.7
		c-5.86-20.18-5.32-41.98,0.48-62.1C886.9799,817.7614,891.9199,806.8914,900.4299,799.0914z"/>
	<path fill="#BBE2EC" d="M1054.62,804.4213c4.96-3.74,11.6-5.83,17.71-3.98c8.0901,2.27,13.88,9.16,17.78,16.28
		c8.91,16.7,10.78,36.3,9.11,54.91c-1.4099,14.38-5.2799,28.81-13.0299,41.12c-5.13,8.18-13.03,15.65-23.15,16.29
		c-9.9-0.4-17.49-8.06-22.1-16.19c-9.3601-16.69-11.16-36.46-9.78-55.22c1.27-13.38,4.59-26.74,11.14-38.56
		C1045.39,813.4413,1049.5601,808.3914,1054.62,804.4213z"/>
</g>
<g>
	<path d="M1581.3,778.2814c53.2899-10.09,106.62-20.02,159.9199-30.09c5.0901,26.17,9.8101,52.42,14.8301,78.61
		c0.27,1.95,1.13,4.08-0.04,5.93c-8.21,18.47-16.0699,37.1-24.41,55.51c-53.2999,9.9-106.5399,20.06-159.84,29.94
		c-5.58-28.73-10.79-57.53-16.26-86.28c-0.91-2.47,0.71-4.6,1.78-6.66C1565.27,809.5714,1573.1801,793.8813,1581.3,778.2814
		 M1719.75,754.3414c-45.73,8.62-91.49,17.1-137.1899,25.83c-8.16,16.09-16.4,32.13-24.49,48.24
		c51.84-9.83,103.7599-19.36,155.5699-29.3199c3.1801-4.57,5.08-10,7.91-14.82c5.5499-11.1,11.3199-22.09,16.84-33.21
		C1732.11,751.7714,1725.96,753.2714,1719.75,754.3414 M1739.97,752.8513c-7.95,15.07-15.48,30.37-23.3199,45.5
		c-1.61,2.6,0.0599,5.63,0.33,8.38c4.8,25.49,9.53,51,14.35,76.49c7.6001-15.7,14.05-31.95,21.26-47.84
		c0.74-2.12,2.39-4.18,1.7301-6.52C1749.53,803.5314,1744.98,778.1414,1739.97,752.8513 M1557.37,830.6013
		c5.25,28.38,10.63,56.73,15.92,85.11c2.59-0.36,5.1899-0.78,7.78-1.29c49.5699-9.45,99.23-18.52,148.7899-28.06
		c-5.37-28.37-10.6699-56.75-15.96-85.14C1661.72,811.0314,1609.5601,820.8613,1557.37,830.6013z"/>
	<path fill="#00984B" d="M1719.75,754.3414c6.21-1.07,12.36-2.57,18.64-3.28c-5.52,11.12-11.29,22.11-16.84,33.21
		c-2.8301,4.82-4.73,10.25-7.91,14.82c-51.8101,9.96-103.73,19.49-155.5699,29.3199c8.09-16.11,16.33-32.15,24.49-48.24
		C1628.26,771.4413,1674.02,762.9614,1719.75,754.3414z"/>
	<path fill="#BBE2EC" d="M1739.97,752.8513c5.01,25.29,9.5601,50.6801,14.3501,76.01c0.6599,2.34-0.9901,4.4-1.7301,6.52
		c-7.21,15.89-13.6599,32.14-21.26,47.84c-4.8199-25.49-9.5499-51-14.35-76.49c-0.27-2.75-1.9399-5.78-0.33-8.38
		C1724.49,783.2213,1732.02,767.9213,1739.97,752.8513z"/>
	<path fill="#69BB65" d="M1557.37,830.6013c52.1901-9.74,104.35-19.5699,156.53-29.38c5.29,28.39,10.59,56.77,15.96,85.14
		c-49.5599,9.54-99.22,18.61-148.7899,28.06c-2.5901,0.51-5.1901,0.93-7.78,1.29C1568,887.3314,1562.62,858.9813,1557.37,830.6013z"
		/>
</g>
<g>
	<path fill="#24241D" d="M654.65,806.4913c15-7.21,31.89-9.85,48.43-9.31c12.65,0.23,25.3,2.65,37.04,7.41
		c-0.61,0.25-1.83,0.73-2.44,0.97c-12.29-4.86-25.56-6.62-38.71-6.89c-17.5,0.55-35.68,3.62-50.4901,13.53
		c-7.4,4.89-13.52,12.56-13.85,21.75c-1.41,5.15-0.63,10.5-0.69,15.76c-0.11,32.0099,0.06,64.02-0.03,96.03
		c-0.13,16.71,0.3199,33.4301-0.23,50.13c-0.32-1.03-0.5-2.0699-0.53-3.11c0-51,0-101.99,0-152.98c-0.06-5.1-0.26-10.44,1.95-15.17
		C638.85,816.2014,646.7,810.5814,654.65,806.4913z"/>
	<path fill="#F8F8CB" d="M648.4799,812.2014c14.8101-9.91,32.9901-12.98,50.4901-13.53c13.15,0.27,26.42,2.03,38.71,6.89
		c9.05,3.57,18.03,8.87,23.31,17.31c3.49,5.53,4.06,12.81,1.01,18.67c-4.63,9.56-14.39,15.16-23.82,19.14
		c-16.13,6.44-33.87,7.86-51.04,6.33c-14.9-1.74-30.23-5.76-42.09-15.37c-5.5-4.38-9.45-10.67-10.42-17.69
		C634.96,824.7614,641.08,817.0914,648.4799,812.2014z"/>
	<path fill="#1F1F11" d="M737.6799,805.5613c0.61-0.24,1.83-0.72,2.44-0.97c8.08,3.64,16.16,8.34,21.27,15.8
		c2.77,3.86,4.31,8.57,4.2,13.33c-0.08,54.04,0.06,108.07-0.08,162.11c-0.72,0.04-2.18,0.13-2.9,0.17
		c-5.29,8.91-14.55,14.54-23.92,18.34c-20.16,7.78-42.63,8.76-63.69,4.4601c-14.83-3.26-30.28-9.66-38.98-22.78
		c-0.59-0.03-1.76-0.11-2.34-0.15c0.55-16.7,0.1-33.42,0.23-50.13c0.09-32.01-0.08-64.02,0.03-96.03
		c0.06-5.26-0.72-10.61,0.69-15.76c0.97,7.02,4.92,13.31,10.42,17.69c11.86,9.61,27.19,13.63,42.09,15.37
		c17.17,1.53,34.91,0.11,51.04-6.33c9.43-3.98,19.19-9.58,23.82-19.14c3.05-5.86,2.48-13.14-1.01-18.67
		C755.71,814.4313,746.7299,809.1313,737.6799,805.5613 M634.8799,841.6313c0.01,50.85-0.04,101.69,0.03,152.54
		c0.5699,0.0599,1.72,0.1599,2.3,0.21c6.7,11.45,19.47,17.46,31.71,21.12c21.5,5.98,44.94,5.64,66.09-1.63
		c9.98-3.65,20.02-9.0699,25.89-18.27c0.56-1.25,1.95-1.3199,3.09-1.64c0.04-50.77,0.01-101.55,0.02-152.3199
		c-3.17,6.23-8.17,11.35-14.06,15.05c-10.74,6.8-23.29,10.22-35.81,11.82c-18.07,2.1-36.82,0.56-53.86-6.07
		C649.9799,858.3813,639.97,851.7913,634.8799,841.6313z"/>
	<path fill="#EEEA38" d="M634.8799,841.6313c5.09,10.16,15.1,16.75,25.4,20.81c17.04,6.63,35.79,8.17,53.86,6.07
		c12.52-1.6,25.07-5.02,35.81-11.82c5.89-3.7,10.89-8.82,14.06-15.05c-0.01,50.77,0.02,101.55-0.02,152.3199
		c-1.14,0.3201-2.53,0.39-3.09,1.64c-5.87,9.2001-15.91,14.62-25.89,18.27c-21.15,7.27-44.59,7.61-66.09,1.63
		c-12.24-3.66-25.0099-9.67-31.71-21.12c-0.58-0.05-1.73-0.15-2.3-0.21C634.84,943.3214,634.89,892.4813,634.8799,841.6313z"/>
</g>
<g>
	<path d="M479.22,754.0914c3.9-1.19,7.65-3.02,11.77-3.29c-5.54,15.45-12.06,30.56-17.98,45.88
		c-35.76,89.92-71.53,179.83-107.28,269.7599c-0.57,1.0601-0.75,2.4701-1.74,3.28c-17.2,11.4501-34.32,23.04-51.5,34.54
		c-1.06,0.91-2.17-0.51-3.09-0.92c-74.85-49.84-149.77-99.5699-224.66-149.33c-10.38-7.1-21.08-13.74-31.3-21.05
		c10.77-16.13,21.59-32.2401,32.52-48.26c70.34-23.22,140.61-46.64,210.89-70.03c6.03-1.98,12.04-3.99,18.05-6.01
		C369.71,790.5814,424.44,772.2614,479.22,754.0914 M314.4,811.0814c-75.17,24.84-150.21,50.05-225.41,74.79
		c15.04,10.35,30.43,20.2,45.61,30.35c76.15,50.4301,152.39,100.73,228.5,151.23c41.64-104.73,83.27-209.47,124.97-314.1799
		C430.23,772.7014,372.25,791.7114,314.4,811.0814 M56.31,932.6313c53.67,35.5699,107.27,71.24,160.89,106.89
		c31.56,20.79,62.88,42.08,94.56,62.58c16.48-10.77,32.74-21.89,49.06-32.91c-91.35-60.6499-182.72-121.28-273.95-182.1299
		C76.68,902.2513,66.23,917.2714,56.31,932.6313z"/>
	<path fill="#E7388E" d="M314.4,811.0814c57.85-19.37,115.83-38.38,173.67-57.81c-41.7,104.71-83.33,209.45-124.97,314.1799
		c-76.11-50.5-152.35-100.7999-228.5-151.23c-15.18-10.15-30.57-20-45.61-30.35C164.19,861.1313,239.23,835.9213,314.4,811.0814z"/>
	<path fill="#F8CAD8" d="M56.31,932.6313c9.92-15.36,20.37-30.38,30.56-45.57c91.23,60.85,182.6,121.48,273.95,182.1299
		c-16.32,11.02-32.58,22.14-49.06,32.91c-31.68-20.5-63-41.7899-94.56-62.58C163.58,1003.8713,109.98,968.2013,56.31,932.6313z"/>
</g>
<g>
	<path fill="#070707" d="M1440.14,891.6913c31.1801-2.16,62.45-3.33,93.66-5.25c4.22,25.45,8.39,50.91,12.6,76.36
		c0.6,5.34,2.24,10.61,2.25,15.97c-10.1801,12.01-20.6801,23.78-30.9401,35.73c-31.2,1.5699-62.38,3.5-93.59,4.87
		c-4.98-29.46-9.6899-58.97-14.65-88.44c-0.11-1.49-1.09-3.27,0.24-4.46C1419.91,914.9213,1429.8,903.0914,1440.14,891.6913
		 M1442.96,893.2114c-2.12-0.2401-3.25,1.71-4.49,3.04c-8.6499,10.18-17.6599,20.05-26.1699,30.34
		c25.58-1.19,51.1499-2.67,76.72-4.09c4.25-0.28,8.72,0.23,12.83-0.93c9.88-10.8,19.26-22.08,28.98-33.04
		C1501.54,889.9913,1472.24,891.5413,1442.96,893.2114 M1504.2,921.9813c-0.7899,0.72-1.0299,1.6-0.72,2.64
		c4.76,28.81,9.54,57.61,14.26,86.42c3.53-3.01,6.21-6.8501,9.36-10.23c6.63-7.66,13.3201-15.28,19.92-22.9601
		c-4.89-29.41-9.5601-58.85-14.63-88.22C1522.96,900.3914,1513.61,911.2114,1504.2,921.9813 M1410.92,928.5814
		c4.9299,29.65,9.86,59.31,14.6599,88.98c30.17-1.5901,60.3301-3.16,90.5-4.8601c-4.6-29.63-9.84-59.15-14.47-88.77
		C1471.36,925.1113,1441.16,927.1113,1410.92,928.5814z"/>
	<path fill="#0068B2" d="M1442.96,893.2114c29.28-1.67,58.5801-3.22,87.87-4.68c-9.72,10.96-19.1,22.24-28.98,33.04
		c-4.11,1.16-8.58,0.65-12.83,0.93c-25.5701,1.42-51.14,2.9-76.72,4.09c8.51-10.29,17.52-20.16,26.1699-30.34
		C1439.71,894.9213,1440.84,892.9713,1442.96,893.2114z"/>
	<path fill="#ED95BD" d="M1504.2,921.9813c9.41-10.77,18.76-21.59,28.1901-32.35c5.0699,29.37,9.74,58.81,14.63,88.22
		c-6.6,7.6801-13.29,15.3-19.92,22.9601c-3.15,3.3799-5.83,7.22-9.36,10.23c-4.72-28.8101-9.5-57.61-14.26-86.42
		C1503.17,923.5814,1503.41,922.7014,1504.2,921.9813z"/>
	<path fill="#E7141A" d="M1410.92,928.5814c30.24-1.47,60.4399-3.47,90.6899-4.65c4.63,29.62,9.87,59.14,14.47,88.77
		c-30.1699,1.7001-60.33,3.27-90.5,4.8601C1420.78,987.8914,1415.85,958.2313,1410.92,928.5814z"/>
</g>
<g>
	<path fill="#080700" d="M1709.85,924.5114c3.75-2.36,6.8-6.31,11.03-7.59c30.6801,4.38,61.3199,9.09,91.97,13.7
		c-1.35,31.05-2.4099,62.13-3.65,93.1901c-12.6699,9.6299-25.22,19.3899-37.9399,28.9399c-30.83-4.64-61.67-9.24-92.51-13.85
		c0.97-31.0701,2.4-62.12,3.47-93.1801C1691.37,938.5814,1700.64,931.5814,1709.85,924.5114 M1712.28,925.0314
		c-8.8,6.92-17.99,13.36-26.52,20.59c29.65,4.26,59.22,9.16,88.91,13.05c11.4199-9.13,23.4099-17.53,34.64-26.88
		c-29.16-4.04-58.2301-8.81-87.39-12.88C1718.04,919.2014,1715.53,923.1414,1712.28,925.0314 M1775.71,960.3713
		c-0.6799,4.0601-0.4399,8.22-0.6799,12.33c-1.03,25.7101-1.9,51.4401-3.03,77.15c11.4-8.65,22.76-17.37,34.12-26.0699
		c2.03-1.25,1.2001-3.97,1.5601-5.9301c1-28.21,2.1499-56.41,3.22-84.61C1799.24,942.3813,1787.22,951.0814,1775.71,960.3713
		 M1684.03,947.2513c-1.29,30.01-2.29,60.02-3.54,90.03c29.88,4.5399,59.77,8.95,89.65,13.4399
		c1.4301-30.01,2.21-60.0499,3.66-90.06C1743.87,956.1913,1713.95,951.7114,1684.03,947.2513z"/>
	<path fill="#FCCB00" d="M1712.28,925.0314c3.25-1.89,5.76-5.83,9.64-6.1201c29.1599,4.07,58.23,8.84,87.39,12.88
		c-11.2301,9.35-23.2201,17.75-34.64,26.88c-29.6901-3.89-59.26-8.79-88.91-13.05
		C1694.29,938.3914,1703.48,931.9514,1712.28,925.0314z"/>
	<path fill="#B7D200" d="M1775.71,960.3713c11.51-9.29,23.53-17.99,35.1901-27.13c-1.0701,28.2-2.22,56.4-3.22,84.61
		c-0.36,1.9601,0.47,4.6801-1.5601,5.9301c-11.36,8.7-22.72,17.4199-34.12,26.0699c1.13-25.71,2-51.4399,3.03-77.15
		C1775.27,968.5913,1775.03,964.4314,1775.71,960.3713z"/>
	<path fill="#EC811A" d="M1684.03,947.2513c29.9199,4.46,59.84,8.94,89.77,13.41c-1.4501,30.0101-2.23,60.05-3.66,90.06
		c-29.88-4.49-59.77-8.9-89.65-13.4399C1681.74,1007.2714,1682.74,977.2614,1684.03,947.2513z"/>
</g>
<g>
	<path d="M788.0499,935.0814c27.01-0.04,54.01,0.03,81.02-0.03c1.3,0.1,2.8-0.24,3.99,0.5c16.09,10.96,32.15,21.96,48.27,32.8701
		c1.11,0.7699,2.57,1.6,2.18,3.2699c-0.02,53.7401,0.05,107.4801-0.04,161.2101c-29.16,0.0699-58.32-0.01-87.48,0.0399
		c-1.45,0.0601-2.92-0.1-4.02-1.1c-14.13-10.9099-28.26-21.84-42.4-32.73c-1.25-0.7-1.83-1.89-1.56-3.29
		C788.04,1042.2413,787.95,988.6614,788.0499,935.0814 M792.59,937.1713c13.68,11.05,27.84,21.51,41.67,32.3701
		c28.24-0.03,56.48,0.02,84.71-0.02c-14.66-10.33-29.64-20.19-44.37-30.41c-1.42-0.88-2.75-2.26-4.55-2.03
		C844.2299,937.1313,818.41,936.9514,792.59,937.1713 M790.0099,938.0513c0.02,52.93-0.05,105.86,0.04,158.79
		c14.34,10.99,28.58,22.12,42.96,33.0801c0-47.41,0-94.8201,0-142.2301c-0.24-5.5499,0.48-11.22-0.34-16.6699
		C818.52,959.9413,804.22,949.0413,790.0099,938.0513 M835.0099,971.5514c0.04,53.12-0.07,106.24,0.05,159.37
		c17.3,0.01,34.6,0,51.91,0c11.53-0.17,23.08,0.34,34.6-0.27c-0.09-52.99-0.12-105.99,0.02-158.98
		C892.7299,971.3613,863.8699,971.6113,835.0099,971.5514z"/>
	<path fill="#F8CAD8" d="M792.59,937.1713c25.82-0.22,51.64-0.04,77.46-0.09c1.8-0.23,3.13,1.15,4.55,2.03
		c14.73,10.22,29.71,20.08,44.37,30.41c-28.23,0.04-56.47-0.01-84.71,0.02C820.4299,958.6813,806.27,948.2213,792.59,937.1713z"/>
	<path fill="#F2E9B5" d="M790.0099,938.0513c14.21,10.99,28.51,21.89,42.66,32.97c0.82,5.45,0.1,11.12,0.34,16.6699
		c0,47.41,0,94.8201,0,142.2301c-14.38-10.9601-28.62-22.0901-42.96-33.0801C789.96,1043.9114,790.03,990.9813,790.0099,938.0513z"
		/>
	<path fill="#591A86" d="M835.0099,971.5514c28.86,0.0599,57.72-0.1901,86.58,0.12c-0.14,52.99-0.11,105.99-0.02,158.98
		c-11.52,0.61-23.07,0.1-34.6,0.27c-17.31,0-34.61,0.01-51.91,0C834.9399,1077.7914,835.0499,1024.6714,835.0099,971.5514z"/>
</g>
<g>
	<path fill="#221E00" d="M1168.5701,957.3613c3.71-2.64,7.1-5.76,11.1299-7.92c2.6901,0.82,5.51,0.53,8.29,0.62
		c51.05,1.27,102.11,2.66,153.15,3.99c0.3,30.54,0.09,61.08,0.11,91.6201c-9.97,7.37-19.91,14.76-29.92,22.0599
		c-54-1.34-107.99-2.7-161.98-4.16c-1.08-30.0099-0.9399-60.0599-2.02-90.0599C1154.2,967.8713,1161.51,962.7814,1168.5701,957.3613
		 M1152.12,972.4913c12.61,0.84,25.28,0.92,37.9301,1.12c12.3099,0.51,24.63,0.9301,36.95,0.96c12.66,0.4701,25.33,1,38.01,1
		c14.35,0.54,28.71,1.0901,43.08,1.02c1.3201,0.15,2.4401-0.58,3.4501-1.34c8.4-6.42,16.87-12.74,25.37-19.01
		c-52.5601-1.57-105.15-2.93-157.72-4.13C1170.24,959.0114,1161.15,965.7013,1152.12,972.4913 M1310.79,978.6714
		c0.4399,28.59,0.74,57.1799,1.3099,85.7799c8.5701-6.3099,17.15-12.6,25.67-18.97c1.71-0.9399,1.33-3.08,1.4399-4.6899
		c-0.12-27.76,0.0601-55.53-0.09-83.29C1329.58,964.4214,1320.14,971.4913,1310.79,978.6714 M1149.49,974.9014
		c0.1,1.58,0.25,3.1699,0.3201,4.77c0.2899,27.3099,0.9199,54.62,1.51,81.9199c10.5699-0.1899,21.1299,0.64,31.71,0.75
		c42.33,1.04,84.66,2.13,126.99,3.26c-0.71-28.83-0.8101-57.6799-1.3101-86.51
		C1255.64,977.6414,1202.5701,976.2814,1149.49,974.9014z"/>
	<path fill="#94C036" d="M1152.12,972.4913c9.03-6.79,18.12-13.48,27.0701-20.38c52.5699,1.2,105.1599,2.56,157.72,4.13
		c-8.5,6.27-16.97,12.59-25.37,19.01c-1.01,0.76-2.13,1.49-3.4501,1.34c-14.37,0.0701-28.73-0.48-43.08-1.02
		c-12.6801,0-25.35-0.5299-38.01-1c-12.3199-0.0299-24.64-0.45-36.95-0.96C1177.4,973.4114,1164.73,973.3313,1152.12,972.4913z"/>
	<path fill="#00984B" d="M1310.79,978.6714c9.35-7.1801,18.7899-14.25,28.33-21.17c0.15,27.76-0.03,55.53,0.09,83.29
		c-0.11,1.61,0.27,3.75-1.4399,4.6899c-8.52,6.37-17.1,12.66-25.67,18.97C1311.53,1035.8513,1311.23,1007.2614,1310.79,978.6714z"/>
	<path fill="#FFE800" d="M1149.49,974.9014c53.0801,1.38,106.15,2.74,159.22,4.1899c0.5,28.8301,0.6001,57.6801,1.3101,86.51
		c-42.33-1.13-84.66-2.22-126.99-3.26c-10.5801-0.11-21.14-0.9399-31.71-0.75c-0.5901-27.2999-1.2201-54.61-1.51-81.9199
		C1149.74,978.0713,1149.59,976.4813,1149.49,974.9014z"/>
</g>
<g>
	<path fill="#020104" d="M991.41,944.2614c5.66-0.27,11.31,1.15,16.98,1.49c15.29,1.6,30.5501,3.55,45.86,4.97
		c2.96,0.53,5.97,0.72,8.98,1c7.15,1.04,14.35,1.58,21.52,2.51c-0.05,31.0701,0.1801,62.15-0.11,93.21
		c-11.74,10.42-24.24,20-36.14,30.25c-21.5-1.83-42.91-4.71-64.3701-6.8999c-9.71-1.14-19.45-2.01-29.12-3.3501
		c0.01-30.59-0.02-61.1799,0.01-91.7699c-0.29-1.7301,1.45-2.53,2.48-3.51C968.8599,962.9413,979.9899,953.4014,991.41,944.2614
		 M992.2499,945.8813c-5.66,4.7-11.36,9.38-17.02,14.09c-5.42,4.8101-11.56,8.85-16.48,14.1901
		c22.39,2.34,44.75,4.9199,67.1301,7.36c7.3101,0.5699,14.59,2.1699,21.9301,1.98c3.37-2.2,6.22-5.11,9.4099-7.5699
		c8.01-6.78,16.3101-13.23,24.16-20.1901C1051.6901,952.3013,1021.9799,949.0314,992.2499,945.8813 M1050.36,984.0314
		c-1.28,0.8199-1.8199,2.2-1.6,3.7c0.0699,29.01-0.0601,58.02,0.0699,87.03c11.51-9.1901,22.7201-18.75,34.1101-28.09
		c0.1599-29.88,0.0299-59.75,0.0699-89.6301C1072.12,966.0314,1061.26,975.0614,1050.36,984.0314 M956.78,975.8114
		c-0.01,30.0599-0.03,60.1299,0.01,90.1899c30.05,3.23,60.09,6.64,90.1501,9.9399c0.1599-30.09,0.0199-60.1899,0.0699-90.2799
		C1016.9199,982.5214,986.8699,978.9214,956.78,975.8114z"/>
	<path fill="#232388" d="M992.2499,945.8813c29.73,3.15,59.4401,6.42,89.1301,9.86c-7.85,6.96-16.15,13.41-24.16,20.1901
		c-3.1899,2.46-6.0399,5.37-9.4099,7.5699c-7.3401,0.1899-14.62-1.41-21.9301-1.98c-22.3801-2.4401-44.7401-5.02-67.1301-7.36
		c4.92-5.3401,11.06-9.38,16.48-14.1901C980.89,955.2614,986.59,950.5814,992.2499,945.8813z"/>
	<path fill="#851F83" d="M1050.36,984.0314c10.9-8.97,21.76-18,32.65-26.9901c-0.04,29.8801,0.09,59.7501-0.0699,89.6301
		c-11.39,9.34-22.6001,18.8999-34.1101,28.09c-0.13-29.01,0-58.02-0.0699-87.03C1048.54,986.2313,1049.08,984.8513,1050.36,984.0314
		z"/>
	<path fill="#C4DAEC" d="M956.78,975.8114c30.09,3.11,60.14,6.71,90.23,9.85c-0.05,30.09,0.09,60.1899-0.0699,90.2799
		c-30.0601-3.2999-60.1001-6.71-90.1501-9.9399C956.7499,1035.9413,956.77,1005.8713,956.78,975.8114z"/>
</g>
<g>
	<path d="M548.85,1105.8513c28.02-13.85,56.08-27.59,84.1299-41.38c14.92,5.51,29.95,10.7001,44.88,16.17
		c10.46,29.2,21.13,58.33,31.55,87.5499c-27.34,13.75-54.9,27.0801-82.34,40.63c-1.85,1.27-3.87,0.01-5.7-0.5699
		c-13.56-5.0601-27.36-9.54-40.8-14.86C569.79,1164.3014,559.39,1135.0414,548.85,1105.8513 M574.5499,1095.2113
		c-7.25,3.79-14.86,6.89-21.87,11.11c13.74,4.9901,27.54,9.8601,41.29,14.8401c20.02-9.78,39.96-19.74,59.99-29.51
		c6.69-3.59,13.87-6.28,20.28-10.37c-13.71-5.01-27.5-9.8401-41.23-14.8301C613.54,1076.0713,594.0599,1085.6614,574.5499,1095.2113
		 M595.2,1122.7313c10.3,28.2001,20.47,56.4501,30.62,84.7001c26.71-13.25,53.54-26.27,80.24-39.55c1.76-0.42,0.38-2.25,0.21-3.26
		c-9.92-27.34-19.81-54.6899-29.64-82.05C649.4799,1095.9413,622.2499,1109.1414,595.2,1122.7313 M551.45,1107.8613
		c10.17,28.0601,20.33,56.11,30.41,84.1901c13.91,5.1499,27.9301,10.0399,41.88,15.09c-9.64-27.27-19.68-54.41-29.38-81.67
		c-0.47-1.4099-1.0699-2.98-2.73-3.24C578.2299,1117.4613,564.8599,1112.6113,551.45,1107.8613z"/>
	<path fill="#C60222" d="M574.5499,1095.2113c19.51-9.5499,38.9901-19.14,58.46-28.76c13.73,4.99,27.52,9.8201,41.23,14.8301
		c-6.41,4.09-13.59,6.78-20.28,10.37c-20.03,9.77-39.97,19.73-59.99,29.51c-13.75-4.98-27.55-9.85-41.29-14.8401
		C559.6899,1102.1013,567.2999,1099.0013,574.5499,1095.2113z"/>
	<path fill="#BBE2EC" d="M595.2,1122.7313c27.05-13.59,54.28-26.79,81.43-40.16c9.83,27.3601,19.72,54.7101,29.64,82.05
		c0.17,1.01,1.55,2.84-0.21,3.26c-26.7,13.28-53.53,26.3-80.24,39.55C615.6699,1179.1814,605.4999,1150.9314,595.2,1122.7313z"/>
	<path fill="#00ACBF" d="M551.45,1107.8613c13.41,4.75,26.78,9.6,40.18,14.37c1.66,0.26,2.26,1.8301,2.73,3.24
		c9.7,27.26,19.7401,54.4,29.38,81.67c-13.95-5.05-27.97-9.9401-41.88-15.09C571.78,1163.9713,561.6199,1135.9214,551.45,1107.8613z
		"/>
</g>
</svg>
